
<?xml version="1.0" encoding="UTF-8"?>
<svg width="30px" height="29px" viewBox="0 0 30 29" version="1.1" xmlns="http://www.w3.org/2000/svg" xmlns:xlink="http://www.w3.org/1999/xlink">
    <title>关闭备份</title>
    <g id="页面-1" stroke="none" stroke-width="1" fill="none" fill-rule="evenodd">
        <g id="经销商详情页-rule-web" transform="translate(-1265.000000, -246.000000)" fill="#1B1B1B" fill-rule="nonzero">
            <g id="关闭备份" transform="translate(1265.000000, 246.000000)">
                <path d="M14.9999999,24.2928929 C15.8155582,24.2928929 16.493099,23.6130412 16.493099,22.8713848 L16.493099,15.7638446 L23.5319949,15.7638446 C24.3224591,15.7638446 24.9999999,15.0963539 24.9999999,14.2928929 C24.9999999,13.5017927 24.3224591,12.834302 23.5319949,12.834302 L16.493099,12.834302 L16.493099,5.72676183 C16.493099,4.94802265 15.8155582,4.29289286 14.9999999,4.29289286 C14.1969886,4.29289286 13.5194478,4.94802265 13.5194478,5.72676183 L13.5194478,12.834302 L6.46800487,12.834302 C5.70263473,12.834302 4.99999985,13.5017927 4.99999985,14.2928929 C4.99999985,15.0963539 5.70263473,15.7638446 6.46800487,15.7638446 L13.5194478,15.7638446 L13.5194478,22.8713848 C13.5194478,23.6130412 14.1969886,24.2928929 14.9999999,24.2928929 Z" id="关闭" transform="translate(15.000000, 14.292893) rotate(135.000000) translate(-15.000000, -14.292893) "></path>
            </g>
        </g>
    </g>
</svg>